<?xml version="1.0" encoding="utf-8"?>
<!-- Generator: Adobe Illustrator 25.2.0, SVG Export Plug-In . SVG Version: 6.00 Build 0)  -->
<svg version="1.1" xmlns="http://www.w3.org/2000/svg" xmlns:xlink="http://www.w3.org/1999/xlink" x="0px" y="0px"
	 viewBox="0 0 1366 768" style="enable-background:new 0 0 1366 768;" xml:space="preserve">
<style type="text/css">
	.st0{fill:#EDF5E1;stroke:#379683;stroke-width:10;stroke-miterlimit:10;}
	.st1{fill:none;stroke:#000000;stroke-width:4;stroke-miterlimit:10;}
	.st2{fill:#681111;stroke:#000000;stroke-width:4;stroke-miterlimit:10;}
</style>
<g id="Layer_3">
</g>
<g id="Layer_1">
</g>
<g id="Layer_2">
	<g>
		<g>
			<polygon class="st0" points="1208.2,72 1153.2,72 1153.2,71.9 1121.3,71.9 1089.3,71.9 1089.3,72 1089,72 1020,241 954,72 
				953.8,72 953.8,72 948.2,72 883.3,71.9 883.3,72 834.9,72 813.9,288.6 889.9,701 892.7,701 924,386 978,512 1056,512 1109,385 
				1150.3,700.9 1269.2,701 			"/>
			<g>
				<polygon class="st1" points="616,153 608,283 680,283 663,153 				"/>
				<path class="st0" d="M862.9,701l-76-412.4L747,72.5h-87H514L511,89c26.5,23.6,62.2,72.1,64.4,135c2.3,67.1-36.1,136.8-95.4,170
					l-0.1,1.3l-18.1,160.1L511.4,701l62.6,0.5L600,387h90l54,314.5h119L862.9,701z M608,283l8-130h47l17,130H608z"/>
			</g>
		</g>
		<g>
			<path class="st1" d="M380.9,153.5h-90l-14,130c31,0,62,0,93,0c29.4-9.5,49.5-36.2,50-66C420.4,190.9,405.2,166,380.9,153.5z"/>
			<path class="st0" d="M457.4,386.5c59.3-33.2,95.3-96.4,93-163.5c-2.2-62.9-37.3-105.8-63.8-129.4C471.4,80.1,459,72.9,457.4,72
				c-120.3,0-180.7,0-301,0l-60,629h140.5l22.5-239.2L336.9,700h84.2h65.3l-49.6-145.6l-57.2-167.7l75.3-0.2L457.4,386.5z
				 M369.9,283.5c-31,0-62,0-93,0l14-130h90c24.3,12.5,39.5,37.4,39,64C419.4,247.3,399.3,274,369.9,283.5z"/>
		</g>
	</g>
	<path class="st2" d="M462,396"/>
</g>
</svg>
